<?xml version="1.0" encoding="UTF-8" standalone="no"?>
<!-- Generated by SVGo -->

<svg
   width="462.44mm"
   height="200mm"
   version="1.1"
   viewBox="0 0 462.44 200"
   id="svg149"
   sodipodi:docname="kbd-top-prod-rev4.svg"
   xml:space="preserve"
   inkscape:version="1.3.2 (091e20ef0f, 2023-11-25)"
   xmlns:inkscape="http://www.inkscape.org/namespaces/inkscape"
   xmlns:sodipodi="http://sodipodi.sourceforge.net/DTD/sodipodi-0.dtd"
   xmlns="http://www.w3.org/2000/svg"
   xmlns:svg="http://www.w3.org/2000/svg"><defs
     id="defs149" /><sodipodi:namedview
     id="namedview149"
     pagecolor="#ffffff"
     bordercolor="#666666"
     borderopacity="1.0"
     inkscape:showpageshadow="2"
     inkscape:pageopacity="0.0"
     inkscape:pagecheckerboard="0"
     inkscape:deskcolor="#d1d1d1"
     inkscape:document-units="mm"
     inkscape:zoom="0.25487817"
     inkscape:cx="973.01389"
     inkscape:cy="-464.92801"
     inkscape:window-width="1920"
     inkscape:window-height="1011"
     inkscape:window-x="0"
     inkscape:window-y="0"
     inkscape:window-maximized="1"
     inkscape:current-layer="svg149" /><path
     id="polygon1"
     d="M 106.41,113.77 V 117 h -0.83 v 2.8 h 0.83 v 6.27 h 1.72 v 0.98 h 3.3 v -0.98 h 1.73 v -4.47 h 39.62 v 4.7 h 14 v -4.7 h 39.63 v 4.47 h 1.72 v 0.98 h 3.3 v -0.98 h 1.73 v -6.27 h 0.82 V 117 h -0.82 v -3.23 h -1.73 v -0.92 h -3.3 v 0.92 h -1.72 V 117 h -39.63 v -4.7 h -14 v 4.7 h -39.62 v -3.23 h -1.73 v -0.92 h -3.3 v 0.92 z"
     style="fill:none;stroke:#000000;stroke-width:0.1" /><path
     id="polygon2"
     d="M 385.01,113.77 V 117 h -0.82 v 2.8 h 0.82 v 6.27 h 1.73 v 0.98 h 3.3 v -0.98 h 1.72 v -4.47 h 1.53 v 4.7 h 14 v -4.7 h 1.52 v 4.47 h 1.73 v 0.98 h 3.3 v -0.98 h 1.72 v -6.27 h 0.83 V 117 h -0.83 v -3.23 h -1.72 v -0.92 h -3.3 v 0.92 h -1.73 V 117 h -1.52 v -4.7 h -14 v 4.7 h -1.53 v -3.23 h -1.72 v -0.92 h -3.3 v 0.92 z"
     style="fill:none;stroke:#000000;stroke-width:0.1" /><path
     id="polygon3"
     d="m 7.526,112.3 v 14 h 14 v -14 z"
     style="fill:none;stroke:#000000;stroke-width:0.1" /><path
     id="polygon4"
     d="m 33.719,112.3 v 14 h 14 v -14 z"
     style="fill:none;stroke:#000000;stroke-width:0.1" /><path
     id="polygon5"
     d="m 57.532,112.3 v 14 h 14 v -14 z"
     style="fill:none;stroke:#000000;stroke-width:0.1" /><path
     id="polygon6"
     d="m 81.344,112.3 v 14 h 14 v -14 z"
     style="fill:none;stroke:#000000;stroke-width:0.1" /><path
     id="polygon7"
     d="m 224.22,112.3 v 14 h 14 v -14 z"
     style="fill:none;stroke:#000000;stroke-width:0.1" /><path
     id="polygon8"
     d="m 248.03,112.3 v 14 h 14 v -14 z"
     style="fill:none;stroke:#000000;stroke-width:0.1" /><path
     id="polygon9"
     d="m 271.84,112.3 v 14 h 14 v -14 z"
     style="fill:none;stroke:#000000;stroke-width:0.1" /><path
     id="polygon10"
     d="m 295.66,112.3 v 14 h 14 v -14 z"
     style="fill:none;stroke:#000000;stroke-width:0.1" /><path
     id="polygon11"
     d="m 321.85,112.3 v 14 h 14 v -14 z"
     style="fill:none;stroke:#000000;stroke-width:0.1" /><path
     id="polygon12"
     d="m 340.9,112.3 v 14 h 14 v -14 z"
     style="fill:none;stroke:#000000;stroke-width:0.1" /><path
     id="polygon13"
     d="m 359.95,112.3 v 14 h 14 v -14 z"
     style="fill:none;stroke:#000000;stroke-width:0.1" /><path
     id="polygon14"
     d="m 421.86,112.3 v 14 h 14 v -14 z"
     style="fill:none;stroke:#000000;stroke-width:0.1" /><path
     id="polygon15"
     d="m 445.61,101.25 v 1.53 h -4.7 v 14 h 4.7 v 1.52 h -4.47 v 1.73 h -0.98 v 3.3 h 0.98 v 1.72 h 6.27 v 0.83 h 2.8 v -0.83 h 3.23 v -1.72 h 0.92 v -3.3 h -0.92 v -1.73 h -3.23 v -1.52 h 4.7 v -14 h -4.7 v -1.53 h 3.23 v -1.724 h 0.92 v -3.3 h -0.92 v -1.725 h -3.23 v -0.825 h -2.8 v 0.825 h -6.27 v 1.725 h -0.98 v 3.3 h 0.98 v 1.724 z"
     style="fill:none;stroke:#000000;stroke-width:0.1" /><path
     id="polygon16"
     d="m 34.969,94.721 v 3.23 h -0.825 v 2.799 h 0.825 v 6.27 h 1.725 V 108 h 3.3 v -0.98 h 1.725 v -4.47 h 1.525 v 4.7 h 14 v -4.7 h 1.525 v 4.47 h 1.725 V 108 h 3.3 v -0.98 h 1.725 v -6.27 h 0.825 v -2.799 h -0.825 v -3.23 h -1.725 v -0.92 h -3.3 v 0.92 h -1.725 v 3.23 h -1.525 v -4.7 h -14 v 4.7 h -1.525 v -3.23 h -1.725 v -0.92 h -3.3 v 0.92 z"
     style="fill:none;stroke:#000000;stroke-width:0.1" /><path
     id="polygon17"
     d="m 273.09,94.721 v 3.23 h -0.82 v 2.799 h 0.82 v 6.27 h 1.73 V 108 h 3.3 v -0.98 h 1.72 v -4.47 h 1.53 v 4.7 h 14 v -4.7 h 1.52 v 4.47 h 1.73 V 108 h 3.3 v -0.98 h 1.72 v -6.27 h 0.83 v -2.799 h -0.83 v -3.23 h -1.72 v -0.92 h -3.3 v 0.92 h -1.73 v 3.23 h -1.52 v -4.7 h -14 v 4.7 h -1.53 v -3.23 h -1.72 v -0.92 h -3.3 v 0.92 z"
     style="fill:none;stroke:#000000;stroke-width:0.1" /><path
     id="polygon18"
     d="m 7.526,93.251 v 13.999 h 14 V 93.251 Z"
     style="fill:none;stroke:#000000;stroke-width:0.1" /><path
     id="polygon19"
     d="m 74.201,93.251 v 13.999 h 14 V 93.251 Z"
     style="fill:none;stroke:#000000;stroke-width:0.1" /><path
     id="polygon20"
     d="M 93.251,93.251 V 107.25 H 107.25 V 93.251 Z"
     style="fill:none;stroke:#000000;stroke-width:0.1" /><path
     id="polygon21"
     d="m 112.3,93.251 v 13.999 h 14 V 93.251 Z"
     style="fill:none;stroke:#000000;stroke-width:0.1" /><path
     id="polygon22"
     d="m 131.35,93.251 v 13.999 h 14 V 93.251 Z"
     style="fill:none;stroke:#000000;stroke-width:0.1" /><path
     id="polygon23"
     d="m 150.4,93.251 v 13.999 h 14 V 93.251 Z"
     style="fill:none;stroke:#000000;stroke-width:0.1" /><path
     id="polygon24"
     d="m 169.45,93.251 v 13.999 h 14 V 93.251 Z"
     style="fill:none;stroke:#000000;stroke-width:0.1" /><path
     id="polygon25"
     d="m 188.5,93.251 v 13.999 h 14 V 93.251 Z"
     style="fill:none;stroke:#000000;stroke-width:0.1" /><path
     id="polygon26"
     d="m 207.55,93.251 v 13.999 h 14 V 93.251 Z"
     style="fill:none;stroke:#000000;stroke-width:0.1" /><path
     id="polygon27"
     d="m 226.6,93.251 v 13.999 h 14 V 93.251 Z"
     style="fill:none;stroke:#000000;stroke-width:0.1" /><path
     id="polygon28"
     d="m 245.65,93.251 v 13.999 h 14 V 93.251 Z"
     style="fill:none;stroke:#000000;stroke-width:0.1" /><path
     id="polygon29"
     d="m 340.9,93.251 v 13.999 h 14 V 93.251 Z"
     style="fill:none;stroke:#000000;stroke-width:0.1" /><path
     id="polygon30"
     d="m 383.76,93.251 v 13.999 h 14 V 93.251 Z"
     style="fill:none;stroke:#000000;stroke-width:0.1" /><path
     id="polygon31"
     d="m 402.81,93.251 v 13.999 h 14 V 93.251 Z"
     style="fill:none;stroke:#000000;stroke-width:0.1" /><path
     id="polygon32"
     d="m 421.86,93.251 v 13.999 h 14 V 93.251 Z"
     style="fill:none;stroke:#000000;stroke-width:0.1" /><path
     id="polygon33"
     d="m 277.86,75.671 v 3.23 h -0.83 v 2.8 h 0.83 v 6.27 h 1.72 v 0.98 h 3.3 v -0.98 h 1.73 v -4.47 h 1.52 v 4.7 h 14 v -4.7 h 1.53 v 4.47 h 1.72 v 0.98 h 3.3 v -0.98 h 1.73 v -6.27 h 0.82 v -2.8 h -0.82 v -3.23 h -1.73 v -0.92 h -3.3 v 0.92 h -1.72 v 3.23 h -1.53 v -4.7 h -14 v 4.7 h -1.52 v -3.23 h -1.73 v -0.92 h -3.3 v 0.92 z"
     style="fill:none;stroke:#000000;stroke-width:0.1" /><path
     id="polygon34"
     d="m 7.526,74.201 v 14 h 14 v -14 z"
     style="fill:none;stroke:#000000;stroke-width:0.1" /><path
     id="polygon35"
     d="m 38.482,74.201 v 14 h 14 v -14 z"
     style="fill:none;stroke:#000000;stroke-width:0.1" /><path
     id="polygon36"
     d="m 64.676,74.201 v 14 h 14 v -14 z"
     style="fill:none;stroke:#000000;stroke-width:0.1" /><path
     id="polygon37"
     d="m 83.726,74.201 v 14 h 14 v -14 z"
     style="fill:none;stroke:#000000;stroke-width:0.1" /><path
     id="polygon38"
     d="m 102.78,74.201 v 14 h 14 v -14 z"
     style="fill:none;stroke:#000000;stroke-width:0.1" /><path
     id="polygon39"
     d="m 121.83,74.201 v 14 h 14 v -14 z"
     style="fill:none;stroke:#000000;stroke-width:0.1" /><path
     id="polygon40"
     d="m 140.88,74.201 v 14 h 14 v -14 z"
     style="fill:none;stroke:#000000;stroke-width:0.1" /><path
     id="polygon41"
     d="m 159.93,74.201 v 14 h 14 v -14 z"
     style="fill:none;stroke:#000000;stroke-width:0.1" /><path
     id="polygon42"
     d="m 178.98,74.201 v 14 h 14 v -14 z"
     style="fill:none;stroke:#000000;stroke-width:0.1" /><path
     id="polygon43"
     d="m 198.03,74.201 v 14 h 14 v -14 z"
     style="fill:none;stroke:#000000;stroke-width:0.1" /><path
     id="polygon44"
     d="m 217.08,74.201 v 14 h 14 v -14 z"
     style="fill:none;stroke:#000000;stroke-width:0.1" /><path
     id="polygon45"
     d="m 236.13,74.201 v 14 h 14 v -14 z"
     style="fill:none;stroke:#000000;stroke-width:0.1" /><path
     id="polygon46"
     d="m 255.18,74.201 v 14 h 14 v -14 z"
     style="fill:none;stroke:#000000;stroke-width:0.1" /><path
     id="polygon47"
     d="m 383.76,74.201 v 14 h 14 v -14 z"
     style="fill:none;stroke:#000000;stroke-width:0.1" /><path
     id="polygon48"
     d="m 402.81,74.201 v 14 h 14 v -14 z"
     style="fill:none;stroke:#000000;stroke-width:0.1" /><path
     id="polygon49"
     d="m 421.86,74.201 v 14 h 14 v -14 z"
     style="fill:none;stroke:#000000;stroke-width:0.1" /><path
     id="polygon50"
     d="m 445.61,63.151 v 1.525 h -4.7 v 14 h 4.7 v 1.525 h -4.47 v 1.725 h -0.98 v 3.3 h 0.98 v 1.725 h 6.27 v 0.825 h 2.8 v -0.825 h 3.23 v -1.725 h 0.92 v -3.3 h -0.92 v -1.725 h -3.23 v -1.525 h 4.7 v -14 h -4.7 v -1.525 h 3.23 v -1.725 h 0.92 v -3.3 h -0.92 v -1.725 h -3.23 v -0.825 h -2.8 v 0.825 h -6.27 v 1.725 h -0.98 v 3.3 h 0.98 v 1.725 z"
     style="fill:none;stroke:#000000;stroke-width:0.1" /><path
     id="polygon51"
     d="m 7.526,55.151 v 14 h 14 v -14 z"
     style="fill:none;stroke:#000000;stroke-width:0.1" /><path
     id="polygon52"
     d="m 36.101,55.151 v 14 h 14 v -14 z"
     style="fill:none;stroke:#000000;stroke-width:0.1" /><path
     id="polygon53"
     d="m 59.913,55.151 v 14 h 14 v -14 z"
     style="fill:none;stroke:#000000;stroke-width:0.1" /><path
     id="polygon54"
     d="m 78.963,55.151 v 14 h 14 v -14 z"
     style="fill:none;stroke:#000000;stroke-width:0.1" /><path
     id="polygon55"
     d="m 98.013,55.151 v 14 h 13.997 v -14 z"
     style="fill:none;stroke:#000000;stroke-width:0.1" /><path
     id="polygon56"
     d="m 117.06,55.151 v 14 h 14 v -14 z"
     style="fill:none;stroke:#000000;stroke-width:0.1" /><path
     id="polygon57"
     d="m 136.11,55.151 v 14 h 14 v -14 z"
     style="fill:none;stroke:#000000;stroke-width:0.1" /><path
     id="polygon58"
     d="m 155.16,55.151 v 14 h 14 v -14 z"
     style="fill:none;stroke:#000000;stroke-width:0.1" /><path
     id="polygon59"
     d="m 174.21,55.151 v 14 h 14 v -14 z"
     style="fill:none;stroke:#000000;stroke-width:0.1" /><path
     id="polygon60"
     d="m 193.26,55.151 v 14 h 14 v -14 z"
     style="fill:none;stroke:#000000;stroke-width:0.1" /><path
     id="polygon61"
     d="m 212.31,55.151 v 14 h 14 v -14 z"
     style="fill:none;stroke:#000000;stroke-width:0.1" /><path
     id="polygon62"
     d="m 231.36,55.151 v 14 h 14 v -14 z"
     style="fill:none;stroke:#000000;stroke-width:0.1" /><path
     id="polygon63"
     d="m 250.41,55.151 v 14 h 14 v -14 z"
     style="fill:none;stroke:#000000;stroke-width:0.1" /><path
     id="polygon64"
     d="m 269.46,55.151 v 14 h 14 v -14 z"
     style="fill:none;stroke:#000000;stroke-width:0.1" /><path
     id="polygon65"
     d="m 293.28,55.151 v 14 h 14 v -14 z"
     style="fill:none;stroke:#000000;stroke-width:0.1" /><path
     id="polygon66"
     d="m 321.85,55.151 v 14 h 14 v -14 z"
     style="fill:none;stroke:#000000;stroke-width:0.1" /><path
     id="polygon67"
     d="m 340.9,55.151 v 14 h 14 v -14 z"
     style="fill:none;stroke:#000000;stroke-width:0.1" /><path
     id="polygon68"
     d="m 359.95,55.151 v 14 h 14 v -14 z"
     style="fill:none;stroke:#000000;stroke-width:0.1" /><path
     id="polygon69"
     d="m 383.76,55.151 v 14 h 14 v -14 z"
     style="fill:none;stroke:#000000;stroke-width:0.1" /><path
     id="polygon70"
     d="m 402.81,55.151 v 14 h 14 v -14 z"
     style="fill:none;stroke:#000000;stroke-width:0.1" /><path
     id="polygon71"
     d="m 421.86,55.151 v 14 h 14 v -14 z"
     style="fill:none;stroke:#000000;stroke-width:0.1" /><path
     id="polygon72"
     d="m 280.24,37.571 v 3.23 h -0.83 v 2.8 h 0.83 v 6.27 h 1.72 v 0.98 h 3.3 v -0.98 h 1.73 v -4.47 h 1.52 v 4.7 h 14 v -4.7 h 1.53 v 4.47 h 1.72 v 0.98 h 3.3 v -0.98 h 1.73 v -6.27 h 0.82 v -2.8 h -0.82 v -3.23 h -1.73 v -0.92 h -3.3 v 0.92 h -1.72 v 3.23 h -1.53 v -4.7 h -14 v 4.7 h -1.52 v -3.23 h -1.73 v -0.92 h -3.3 v 0.92 z"
     style="fill:none;stroke:#000000;stroke-width:0.1" /><path
     id="polygon73"
     d="m 7.526,36.101 v 14 h 14 v -14 z"
     style="fill:none;stroke:#000000;stroke-width:0.1" /><path
     id="polygon74"
     d="m 31.338,36.101 v 14 h 14 v -14 z"
     style="fill:none;stroke:#000000;stroke-width:0.1" /><path
     id="polygon75"
     d="m 50.388,36.101 v 14 h 14 v -14 z"
     style="fill:none;stroke:#000000;stroke-width:0.1" /><path
     id="polygon76"
     d="m 69.438,36.101 v 14 h 14 v -14 z"
     style="fill:none;stroke:#000000;stroke-width:0.1" /><path
     id="polygon77"
     d="m 88.488,36.101 v 14 h 14.002 v -14 z"
     style="fill:none;stroke:#000000;stroke-width:0.1" /><path
     id="polygon78"
     d="m 107.54,36.101 v 14 h 14 v -14 z"
     style="fill:none;stroke:#000000;stroke-width:0.1" /><path
     id="polygon79"
     d="m 126.59,36.101 v 14 h 14 v -14 z"
     style="fill:none;stroke:#000000;stroke-width:0.1" /><path
     id="polygon80"
     d="m 145.64,36.101 v 14 h 14 v -14 z"
     style="fill:none;stroke:#000000;stroke-width:0.1" /><path
     id="polygon81"
     d="m 164.69,36.101 v 14 h 14 v -14 z"
     style="fill:none;stroke:#000000;stroke-width:0.1" /><path
     id="polygon82"
     d="m 183.74,36.101 v 14 h 14 v -14 z"
     style="fill:none;stroke:#000000;stroke-width:0.1" /><path
     id="polygon83"
     d="m 202.79,36.101 v 14 h 14 v -14 z"
     style="fill:none;stroke:#000000;stroke-width:0.1" /><path
     id="polygon84"
     d="m 221.84,36.101 v 14 h 14 v -14 z"
     style="fill:none;stroke:#000000;stroke-width:0.1" /><path
     id="polygon85"
     d="m 240.89,36.101 v 14 h 14 v -14 z"
     style="fill:none;stroke:#000000;stroke-width:0.1" /><path
     id="polygon86"
     d="m 259.94,36.101 v 14 h 14 v -14 z"
     style="fill:none;stroke:#000000;stroke-width:0.1" /><path
     id="polygon87"
     d="m 321.85,36.101 v 14 h 14 v -14 z"
     style="fill:none;stroke:#000000;stroke-width:0.1" /><path
     id="polygon88"
     d="m 340.9,36.101 v 14 h 14 v -14 z"
     style="fill:none;stroke:#000000;stroke-width:0.1" /><path
     id="polygon89"
     d="m 359.95,36.101 v 14 h 14 v -14 z"
     style="fill:none;stroke:#000000;stroke-width:0.1" /><path
     id="polygon90"
     d="m 383.76,36.101 v 14 h 14 v -14 z"
     style="fill:none;stroke:#000000;stroke-width:0.1" /><path
     id="polygon91"
     d="m 402.81,36.101 v 14 h 14 v -14 z"
     style="fill:none;stroke:#000000;stroke-width:0.1" /><path
     id="polygon92"
     d="m 421.86,36.101 v 14 h 14 v -14 z"
     style="fill:none;stroke:#000000;stroke-width:0.1" /><path
     id="polygon93"
     d="m 440.91,36.101 v 14 h 14 v -14 z"
     style="fill:none;stroke:#000000;stroke-width:0.1" /><path
     id="polygon94"
     d="m 7.526,7.526 v 14 h 14 v -14 z"
     style="fill:none;stroke:#000000;stroke-width:0.1" /><path
     id="polygon95"
     d="m 31.338,7.526 v 14 h 14 v -14 z"
     style="fill:none;stroke:#000000;stroke-width:0.1" /><path
     id="polygon96"
     d="m 69.438,7.526 v 14 h 14 v -14 z"
     style="fill:none;stroke:#000000;stroke-width:0.1" /><path
     id="polygon97"
     d="m 88.488,7.526 v 14 h 14.002 v -14 z"
     style="fill:none;stroke:#000000;stroke-width:0.1" /><path
     id="polygon98"
     d="m 107.54,7.526 v 14 h 14 v -14 z"
     style="fill:none;stroke:#000000;stroke-width:0.1" /><path
     id="polygon99"
     d="m 126.59,7.526 v 14 h 14 v -14 z"
     style="fill:none;stroke:#000000;stroke-width:0.1" /><path
     id="polygon100"
     d="m 155.16,7.526 v 14 h 14 v -14 z"
     style="fill:none;stroke:#000000;stroke-width:0.1" /><path
     id="polygon101"
     d="m 174.21,7.526 v 14 h 14 v -14 z"
     style="fill:none;stroke:#000000;stroke-width:0.1" /><path
     id="polygon102"
     d="m 193.26,7.526 v 14 h 14 v -14 z"
     style="fill:none;stroke:#000000;stroke-width:0.1" /><path
     id="polygon103"
     d="m 212.31,7.526 v 14 h 14 v -14 z"
     style="fill:none;stroke:#000000;stroke-width:0.1" /><path
     id="polygon104"
     d="m 240.89,7.526 v 14 h 14 v -14 z"
     style="fill:none;stroke:#000000;stroke-width:0.1" /><path
     id="polygon105"
     d="m 259.94,7.526 v 14 h 14 v -14 z"
     style="fill:none;stroke:#000000;stroke-width:0.1" /><path
     id="polygon106"
     d="m 278.99,7.526 v 14 h 14 v -14 z"
     style="fill:none;stroke:#000000;stroke-width:0.1" /><path
     id="polygon107"
     d="m 298.04,7.526 v 14 h 14 v -14 z"
     style="fill:none;stroke:#000000;stroke-width:0.1" /><path
     id="polygon108"
     d="m 321.85,7.526 v 14 h 14 v -14 z"
     style="fill:none;stroke:#000000;stroke-width:0.1" /><path
     id="polygon109"
     d="m 340.9,7.526 v 14 h 14 v -14 z"
     style="fill:none;stroke:#000000;stroke-width:0.1" /><path
     id="polygon110"
     d="m 359.95,7.526 v 14 h 14 v -14 z"
     style="fill:none;stroke:#000000;stroke-width:0.1" /><path
     id="circle110"
     d="m 12.153,29.297001 a 1.1,1.1 0 0 1 -1.1,1.1 1.1,1.1 0 0 1 -1.0999996,-1.1 1.1,1.1 0 0 1 1.0999996,-1.1 1.1,1.1 0 0 1 1.1,1.1 z"
     style="fill:none;stroke:#000000;stroke-width:0.1" /><path
     id="circle111"
     d="m 58.469,15.121 a 1.1,1.1 0 0 1 -1.100001,1.1 1.1,1.1 0 0 1 -1.1,-1.1 1.1,1.1 0 0 1 1.1,-1.1 1.1,1.1 0 0 1 1.100001,1.1 z"
     style="fill:none;stroke:#000000;stroke-width:0.1" /><path
     id="circle112"
     d="m 72.401003,24.987 a 1.1,1.1 0 0 1 -1.1,1.1 1.1,1.1 0 0 1 -1.100001,-1.1 1.1,1.1 0 0 1 1.100001,-1.100001 1.1,1.1 0 0 1 1.1,1.100001 z"
     style="fill:none;stroke:#000000;stroke-width:0.1" /><path
     id="circle113"
     d="m 56.038999,66.285004 a 1.1,1.1 0 0 1 -1.1,1.1 1.1,1.1 0 0 1 -1.1,-1.1 1.1,1.1 0 0 1 1.1,-1.1 1.1,1.1 0 0 1 1.1,1.1 z"
     style="fill:none;stroke:#000000;stroke-width:0.1" /><path
     id="circle114"
     d="m 115.59,53.131001 a 1.1,1.1 0 0 1 -1.1,1.1 1.1,1.1 0 0 1 -1.1,-1.1 1.1,1.1 0 0 1 1.1,-1.100001 1.1,1.1 0 0 1 1.1,1.100001 z"
     style="fill:none;stroke:#000000;stroke-width:0.1" /><path
     id="circle115"
     d="m 139.85,25.395 a 1.1,1.1 0 0 1 -1.1,1.1 1.1,1.1 0 0 1 -1.1,-1.1 1.1,1.1 0 0 1 1.1,-1.1 1.1,1.1 0 0 1 1.1,1.1 z"
     style="fill:none;stroke:#000000;stroke-width:0.1" /><path
     id="circle116"
     d="m 150.51,24.525999 a 1.1,1.1 0 0 1 -1.1,1.1 1.1,1.1 0 0 1 -1.1,-1.1 1.1,1.1 0 0 1 1.1,-1.1 1.1,1.1 0 0 1 1.1,1.1 z"
     style="fill:none;stroke:#000000;stroke-width:0.1" /><path
     id="circle117"
     d="m 191.79,53.060001 a 1.1,1.1 0 0 1 -1.1,1.1 1.1,1.1 0 0 1 -1.1,-1.1 1.1,1.1 0 0 1 1.1,-1.1 1.1,1.1 0 0 1 1.1,1.1 z"
     style="fill:none;stroke:#000000;stroke-width:0.1" /><path
     id="circle118"
     d="m 233.41,14.526 a 1.1,1.1 0 0 1 -1.1,1.1 1.1,1.1 0 0 1 -1.1,-1.1 1.1,1.1 0 0 1 1.1,-1.1 1.1,1.1 0 0 1 1.1,1.1 z"
     style="fill:none;stroke:#000000;stroke-width:0.1" /><path
     id="circle119"
     d="m 246.02999,26.079 a 1.1,1.1 0 0 1 -1.1,1.1 1.1,1.1 0 0 1 -1.1,-1.1 1.1,1.1 0 0 1 1.1,-1.1 1.1,1.1 0 0 1 1.1,1.1 z"
     style="fill:none;stroke:#000000;stroke-width:0.1" /><path
     id="circle120"
     d="m 285.39999,26.079 a 1.1,1.1 0 0 1 -1.1,1.1 1.1,1.1 0 0 1 -1.1,-1.1 1.1,1.1 0 0 1 1.1,-1.1 1.1,1.1 0 0 1 1.1,1.1 z"
     style="fill:none;stroke:#000000;stroke-width:0.1" /><path
     id="circle121"
     d="m 325.17001,26.079 a 1.1,1.1 0 0 1 -1.1,1.1 1.1,1.1 0 0 1 -1.1,-1.1 1.1,1.1 0 0 1 1.1,-1.1 1.1,1.1 0 0 1 1.1,1.1 z"
     style="fill:none;stroke:#000000;stroke-width:0.1" /><path
     id="circle122"
     d="m 372.74001,26.079 a 1.1,1.1 0 0 1 -1.1,1.1 1.1,1.1 0 0 1 -1.1,-1.1 1.1,1.1 0 0 1 1.1,-1.1 1.1,1.1 0 0 1 1.1,1.1 z"
     style="fill:none;stroke:#000000;stroke-width:0.1" /><path
     id="circle123"
     d="m 386.08999,14.526 a 1.1,1.1 0 0 1 -1.1,1.1 1.1,1.1 0 0 1 -1.1,-1.1 1.1,1.1 0 0 1 1.1,-1.1 1.1,1.1 0 0 1 1.1,1.1 z"
     style="fill:none;stroke:#000000;stroke-width:0.1" /><path
     id="circle124"
     d="m 452.70001,14.526 a 1.1,1.1 0 0 1 -1.1,1.1 1.1,1.1 0 0 1 -1.1,-1.1 1.1,1.1 0 0 1 1.1,-1.1 1.1,1.1 0 0 1 1.1,1.1 z"
     style="fill:none;stroke:#000000;stroke-width:0.1" /><path
     id="circle125"
     d="m 420.44,52.625999 a 1.1,1.1 0 0 1 -1.1,1.1 1.1,1.1 0 0 1 -1.1,-1.1 1.1,1.1 0 0 1 1.1,-1.1 1.1,1.1 0 0 1 1.1,1.1 z"
     style="fill:none;stroke:#000000;stroke-width:0.1" /><path
     id="circle126"
     d="m 358.52999,52.625999 a 1.1,1.1 0 0 1 -1.1,1.1 1.1,1.1 0 0 1 -1.1,-1.1 1.1,1.1 0 0 1 1.1,-1.1 1.1,1.1 0 0 1 1.1,1.1 z"
     style="fill:none;stroke:#000000;stroke-width:0.1" /><path
     id="circle127"
     d="m 31.069,80.941002 a 1.1,1.1 0 0 1 -1.1,1.1 1.1,1.1 0 0 1 -1.1,-1.1 1.1,1.1 0 0 1 1.1,-1.1 1.1,1.1 0 0 1 1.1,1.1 z"
     style="fill:none;stroke:#000000;stroke-width:0.1" /><path
     id="circle128"
     d="m 58.269998,76.786003 a 1.1,1.1 0 0 1 -1.1,1.1 1.1,1.1 0 0 1 -1.1,-1.1 1.1,1.1 0 0 1 1.1,-1.1 1.1,1.1 0 0 1 1.1,1.1 z"
     style="fill:none;stroke:#000000;stroke-width:0.1" /><path
     id="circle129"
     d="m 28.682001,123.45 a 1.1,1.1 0 0 1 -1.1,1.1 1.1,1.1 0 0 1 -1.1,-1.1 1.1,1.1 0 0 1 1.1,-1.1 1.1,1.1 0 0 1 1.1,1.1 z"
     style="fill:none;stroke:#000000;stroke-width:0.1" /><path
     id="circle130"
     d="m 91.806001,91.163002 a 1.1,1.1 0 0 1 -1.1,1.1 1.1,1.1 0 0 1 -1.1,-1.1 1.1,1.1 0 0 1 1.1,-1.1 1.1,1.1 0 0 1 1.1,1.1 z"
     style="fill:none;stroke:#000000;stroke-width:0.1" /><path
     id="circle131"
     d="m 129.93,91.163002 a 1.1,1.1 0 0 1 -1.1,1.1 1.1,1.1 0 0 1 -1.1,-1.1 1.1,1.1 0 0 1 1.1,-1.1 1.1,1.1 0 0 1 1.1,1.1 z"
     style="fill:none;stroke:#000000;stroke-width:0.1" /><path
     id="circle132"
     d="m 102.04,123.45 a 1.1,1.1 0 0 1 -1.1,1.1 1.1,1.1 0 0 1 -1.099998,-1.1 1.1,1.1 0 0 1 1.099998,-1.1 1.1,1.1 0 0 1 1.1,1.1 z"
     style="fill:none;stroke:#000000;stroke-width:0.1" /><path
     id="circle133"
     d="m 168.02,109.31 a 1.1,1.1 0 0 1 -1.1,1.1 1.1,1.1 0 0 1 -1.1,-1.1 1.1,1.1 0 0 1 1.1,-1.1 1.1,1.1 0 0 1 1.1,1.1 z"
     style="fill:none;stroke:#000000;stroke-width:0.1" /><path
     id="circle134"
     d="m 215.60999,90.163002 a 1.1,1.1 0 0 1 -1.1,1.1 1.1,1.1 0 0 1 -1.1,-1.1 1.1,1.1 0 0 1 1.1,-1.1 1.1,1.1 0 0 1 1.1,1.1 z"
     style="fill:none;stroke:#000000;stroke-width:0.1" /><path
     id="circle135"
     d="m 218.56001,123.45 a 1.1,1.1 0 0 1 -1.1,1.1 1.1,1.1 0 0 1 -1.1,-1.1 1.1,1.1 0 0 1 1.1,-1.1 1.1,1.1 0 0 1 1.1,1.1 z"
     style="fill:none;stroke:#000000;stroke-width:0.1" /><path
     id="circle136"
     d="m 244.23,123.45 a 1.1,1.1 0 0 1 -1.1,1.1 1.1,1.1 0 0 1 -1.1,-1.1 1.1,1.1 0 0 1 1.1,-1.1 1.1,1.1 0 0 1 1.1,1.1 z"
     style="fill:none;stroke:#000000;stroke-width:0.1" /><path
     id="circle137"
     d="m 274.64001,85.560997 a 1.1,1.1 0 0 1 -1.1,1.1 1.1,1.1 0 0 1 -1.1,-1.1 1.1,1.1 0 0 1 1.1,-1.1 1.1,1.1 0 0 1 1.1,1.1 z"
     style="fill:none;stroke:#000000;stroke-width:0.1" /><path
     id="circle138"
     d="m 314.04,67.220001 a 1.1,1.1 0 0 1 -1.1,1.1 1.1,1.1 0 0 1 -1.1,-1.1 1.1,1.1 0 0 1 1.1,-1.1 1.1,1.1 0 0 1 1.1,1.1 z"
     style="fill:none;stroke:#000000;stroke-width:0.1" /><path
     id="circle139"
     d="m 325.77999,77.556 a 1.1,1.1 0 0 1 -1.1,1.1 1.1,1.1 0 0 1 -1.1,-1.1 1.1,1.1 0 0 1 1.1,-1.1 1.1,1.1 0 0 1 1.1,1.1 z"
     style="fill:none;stroke:#000000;stroke-width:0.1" /><path
     id="circle140"
     d="m 315.55001,123.45 a 1.1,1.1 0 0 1 -1.1,1.1 1.1,1.1 0 0 1 -1.1,-1.1 1.1,1.1 0 0 1 1.1,-1.1 1.1,1.1 0 0 1 1.1,1.1 z"
     style="fill:none;stroke:#000000;stroke-width:0.1" /><path
     id="circle141"
     d="m 358.52999,109.71 a 1.1,1.1 0 0 1 -1.1,1.1 1.1,1.1 0 0 1 -1.1,-1.1 1.1,1.1 0 0 1 1.1,-1.1 1.1,1.1 0 0 1 1.1,1.1 z"
     style="fill:none;stroke:#000000;stroke-width:0.1" /><path
     id="circle142"
     d="m 377.02999,77.472 a 1.1,1.1 0 0 1 -1.1,1.1 1.1,1.1 0 0 1 -1.1,-1.1 1.1,1.1 0 0 1 1.1,-1.1 1.1,1.1 0 0 1 1.1,1.1 z"
     style="fill:none;stroke:#000000;stroke-width:0.1" /><path
     id="circle143"
     d="m 401.39001,90.725998 a 1.1,1.1 0 0 1 -1.1,1.1 1.1,1.1 0 0 1 -1.1,-1.1 1.1,1.1 0 0 1 1.1,-1.1 1.1,1.1 0 0 1 1.1,1.1 z"
     style="fill:none;stroke:#000000;stroke-width:0.1" /><path
     id="circle144"
     d="m 420.44,109.84 a 1.1,1.1 0 0 1 -1.1,1.1 1.1,1.1 0 0 1 -1.1,-1.1 1.1,1.1 0 0 1 1.1,-1.1 1.1,1.1 0 0 1 1.1,1.1 z"
     style="fill:none;stroke:#000000;stroke-width:0.1" /><path
     id="circle145"
     d="m 440.24001,90.725998 a 1.1,1.1 0 0 1 -1.1,1.1 1.1,1.1 0 0 1 -1.1,-1.1 1.1,1.1 0 0 1 1.1,-1.1 1.1,1.1 0 0 1 1.1,1.1 z"
     style="fill:none;stroke:#000000;stroke-width:0.1" /><path
     id="rect145"
     d="m 5,-1.584e-6 h 452.44 c 2.77,0 5,2.229999984 5,4.999999984 V 128.83 c 0,2.77 -2.23,5 -5,5 H 5 c -2.77,0 -5,-2.23 -5,-5 V 4.9999984 C 0,2.2299984 2.23,-1.584e-6 5,-1.584e-6 Z"
     style="fill:none;stroke:#000000;stroke-width:0.1" /><path
     id="rect149"
     style="fill:none;stroke:#000000;stroke-width:0.1;stroke-linecap:round;stroke-linejoin:round;paint-order:fill markers stroke"
     d="m 390.92099,6.1259952 h 27.5 V 26.185995 h -27.5 z" /><path
     id="rect150"
     style="fill:none;stroke:#000000;stroke-width:0.1;stroke-linecap:round;stroke-linejoin:round;paint-order:fill markers stroke"
     d="m 420.259,6.1259971 h 27.5 V 26.185997 h -27.5 z" /><path
     style="font-size:10.583px;line-height:1.05;font-family:'思源黑体';-inkscape-font-specification:'思源黑体';text-align:center;text-anchor:middle;stroke-width:0.26458"
     d="m 18.940913,157.69129 v 2.99499 c 0,1.73561 -0.126996,4.06387 -1.534535,5.71482 0.179911,0.0952 0.518567,0.39157 0.656146,0.5609 1.206462,-1.40754 1.58745,-3.41831 1.69328,-5.11159 h 2.740997 c 0.677312,2.47642 1.947272,4.24378 4.148536,5.04809 0.116413,-0.23282 0.359822,-0.55031 0.550316,-0.73022 -2.042519,-0.63498 -3.28073,-2.21185 -3.883961,-4.31787 h 2.85741 v -4.15912 z m 0.84664,0.78314 h 5.566658 v 2.60342 h -5.566658 v -0.39157 z m 9.619947,3.21724 c 0.783142,0.81489 1.608616,1.94727 1.936689,2.69866 l 0.719644,-0.45507 c -0.349239,-0.76197 -1.206462,-1.86261 -1.989604,-2.65633 z m 4.942261,-4.50836 v 2.25418 h -6.159306 v 0.78314 h 6.159306 v 5.51374 c 0,0.25399 -0.08466,0.32808 -0.338656,0.33866 -0.285741,0 -1.206462,0.0106 -2.190681,-0.0212 0.137579,0.24341 0.306907,0.63498 0.359822,0.88897 1.142964,0 1.957855,-0.0212 2.391758,-0.15874 0.444486,-0.13758 0.613814,-0.39157 0.613814,-1.04772 v -5.51374 h 2.497588 v -0.78314 h -2.497588 v -2.25418 z m 9.8422,8.88972 h 0.910138 v -2.13777 h 1.037134 v -0.77256 h -1.037134 v -4.84701 h -1.068883 l -3.227815,4.98459 v 0.63498 h 3.38656 z m 0,-2.91033 h -2.381175 l 1.767361,-2.64575 c 0.222243,-0.38098 0.433903,-0.77256 0.624397,-1.14296 h 0.04233 c -0.02117,0.39157 -0.05291,1.02655 -0.05291,1.40754 z m 5.460832,3.04791 c 1.206462,0 2.233013,-1.01597 2.233013,-2.51876 0,-1.62978 -0.84664,-2.43409 -2.158932,-2.43409 -0.603231,0 -1.280543,0.34924 -1.756778,0.93131 0.04233,-2.40234 0.920721,-3.21723 2.000187,-3.21723 0.465652,0 0.931304,0.23282 1.227628,0.59264 l 0.550316,-0.59264 c -0.433903,-0.46566 -1.015968,-0.79373 -1.820276,-0.79373 -1.502786,0 -2.867993,1.15355 -2.867993,4.19087 0,2.56108 1.111215,3.84163 2.592835,3.84163 z m -1.661531,-3.24898 c 0.507984,-0.71965 1.100632,-0.98422 1.576867,-0.98422 0.941887,0 1.396956,0.66673 1.396956,1.71444 0,1.0583 -0.571482,1.75678 -1.312292,1.75678 -0.973636,0 -1.555701,-0.87839 -1.661531,-2.487 z m 4.81527,3.1114 h 4.878763 v -0.83606 h -2.148349 c -0.391571,0 -0.867806,0.0423 -1.26996,0.0741 1.820276,-1.72503 3.047904,-3.30189 3.047904,-4.85759 0,-1.37579 -0.878389,-2.27535 -2.264762,-2.27535 -0.984219,0 -1.661531,0.44449 -2.285928,1.13238 l 0.560899,0.55032 c 0.433903,-0.51857 0.973636,-0.89956 1.608616,-0.89956 0.963053,0 1.428705,0.64557 1.428705,1.53454 0,1.33346 -1.121798,2.87857 -3.555888,5.00576 z m 6.87895,0.13758 c 0.380988,0 0.698478,-0.29633 0.698478,-0.73023 0,-0.44449 -0.31749,-0.74081 -0.698478,-0.74081 -0.391571,0 -0.698478,0.29632 -0.698478,0.74081 0,0.4339 0.306907,0.73023 0.698478,0.73023 z m 5.069257,-0.13758 h 0.910138 v -2.13777 h 1.037134 v -0.77256 h -1.037134 v -4.84701 h -1.068883 l -3.227815,4.98459 v 0.63498 h 3.38656 z m 0,-2.91033 h -2.381175 l 1.767361,-2.64575 c 0.222243,-0.38098 0.433903,-0.77256 0.624397,-1.14296 h 0.04233 c -0.02117,0.39157 -0.05291,1.02655 -0.05291,1.40754 z m 5.87357,2.91033 h 0.910138 v -2.13777 h 1.037134 v -0.77256 h -1.037134 v -4.84701 h -1.068883 l -3.227815,4.98459 v 0.63498 h 3.38656 z m 0,-2.91033 h -2.381175 l 1.767361,-2.64575 c 0.222243,-0.38098 0.433903,-0.77256 0.624397,-1.14296 h 0.04233 c -0.02117,0.39157 -0.05291,1.02655 -0.05291,1.40754 z m 5.619587,2.91033 h 0.973636 v -4.1697 c 0.518567,-0.59265 1.005385,-0.87839 1.439288,-0.87839 0.730227,0 1.068883,0.45507 1.068883,1.53453 v 3.51356 h 0.963053 v -4.1697 c 0.539733,-0.59265 1.005385,-0.87839 1.449871,-0.87839 0.730227,0 1.068883,0.45507 1.068883,1.53453 v 3.51356 h 0.963053 v -3.64055 c 0,-1.46046 -0.560899,-2.25418 -1.735612,-2.25418 -0.709061,0 -1.301709,0.45507 -1.90494,1.10063 -0.232826,-0.67731 -0.698478,-1.10063 -1.58745,-1.10063 -0.687895,0 -1.280543,0.4339 -1.788527,0.98422 h -0.02117 l -0.09525,-0.83606 h -0.793725 z m 9.799862,0 h 0.973636 v -4.1697 c 0.518567,-0.59265 1.005385,-0.87839 1.439288,-0.87839 0.730227,0 1.068883,0.45507 1.068883,1.53453 v 3.51356 h 0.963053 v -4.1697 c 0.539733,-0.59265 1.005385,-0.87839 1.449871,-0.87839 0.730227,0 1.068883,0.45507 1.068883,1.53453 v 3.51356 h 0.963053 v -3.64055 c 0,-1.46046 -0.560899,-2.25418 -1.735612,-2.25418 -0.709061,0 -1.301709,0.45507 -1.90494,1.10063 -0.232826,-0.67731 -0.698478,-1.10063 -1.58745,-1.10063 -0.687895,0 -1.280543,0.4339 -1.788527,0.98422 h -0.02117 l -0.09525,-0.83606 h -0.793725 z m 11.35558,0 h 1.015968 l 0.772559,-1.34404 c 0.201077,-0.34924 0.380988,-0.69848 0.582065,-1.02655 h 0.05292 c 0.222245,0.32807 0.433905,0.67731 0.624395,1.02655 l 0.84664,1.34404 h 1.0583 l -1.89436,-2.89974 1.7462,-2.84683 h -1.00539 l -0.70906,1.25938 c -0.17991,0.32807 -0.33865,0.63498 -0.50798,0.96305 h -0.05291 c -0.190494,-0.32807 -0.391571,-0.63498 -0.560899,-0.96305 l -0.772559,-1.25938 H 97.5515 l 1.746195,2.75158 z m 8.413482,0 h 4.25437 v -0.80431 h -1.55571 v -6.74137 h -0.74081 c -0.42332,0.25399 -0.92072,0.4339 -1.60861,0.5609 v 0.61381 h 1.38637 v 5.56666 h -1.73561 z m 7.7256,0.13758 c 1.38637,0 2.49759,-0.80431 2.49759,-2.14835 0,-1.03714 -0.73023,-1.70386 -1.64037,-1.92611 v -0.0423 c 0.81489,-0.29632 1.37579,-0.87839 1.37579,-1.79911 0,-1.20646 -0.95247,-1.90494 -2.26476,-1.90494 -0.88897,0 -1.57687,0.40215 -2.15893,0.94189 l 0.51856,0.61381 c 0.44449,-0.45507 0.98422,-0.77256 1.60862,-0.77256 0.81489,0 1.31229,0.46565 1.31229,1.19588 0,0.79373 -0.53973,1.40754 -2.14835,1.40754 v 0.75139 c 1.79911,0 2.41293,0.59265 2.41293,1.49221 0,0.85722 -0.64557,1.38637 -1.57687,1.38637 -0.87839,0 -1.46045,-0.42332 -1.91552,-0.88897 l -0.4974,0.62439 c 0.50798,0.5609 1.26996,1.06889 2.47642,1.06889 z m 5.87356,0 c 1.38638,0 2.49759,-0.80431 2.49759,-2.14835 0,-1.03714 -0.73023,-1.70386 -1.64036,-1.92611 v -0.0423 c 0.81489,-0.29632 1.37579,-0.87839 1.37579,-1.79911 0,-1.20646 -0.95247,-1.90494 -2.26477,-1.90494 -0.88897,0 -1.57686,0.40215 -2.15893,0.94189 l 0.51857,0.61381 c 0.44449,-0.45507 0.98422,-0.77256 1.60862,-0.77256 0.81489,0 1.31229,0.46565 1.31229,1.19588 0,0.79373 -0.53974,1.40754 -2.14835,1.40754 v 0.75139 c 1.79911,0 2.41292,0.59265 2.41292,1.49221 0,0.85722 -0.64556,1.38637 -1.57686,1.38637 -0.87839,0 -1.46046,-0.42332 -1.91553,-0.88897 l -0.4974,0.62439 c 0.50799,0.5609 1.26996,1.06889 2.47642,1.06889 z m 4.56128,0 c 0.38099,0 0.69848,-0.29633 0.69848,-0.73023 0,-0.44449 -0.31749,-0.74081 -0.69848,-0.74081 -0.39157,0 -0.69848,0.29632 -0.69848,0.74081 0,0.4339 0.30691,0.73023 0.69848,0.73023 z m 4.43428,0 c 1.44987,0 2.4235,-0.87839 2.4235,-2.00019 0,-1.01597 -0.63498,-1.5557 -1.3017,-1.95785 v -0.0423 c 0.45506,-0.34924 1.02655,-1.02655 1.02655,-1.82027 0,-1.16413 -0.80431,-2.00019 -2.12719,-2.00019 -1.20646,0 -2.12718,0.77256 -2.12718,1.92611 0,0.79372 0.48682,1.35462 1.04772,1.74619 v 0.0423 c -0.69848,0.38099 -1.41812,1.0583 -1.41812,2.04252 0,1.19588 1.03713,2.06369 2.47642,2.06369 z m 0.52915,-4.24379 c -0.91014,-0.35982 -1.75678,-0.74081 -1.75678,-1.65094 0,-0.73023 0.51857,-1.20647 1.23821,-1.20647 0.82547,0 1.31229,0.59265 1.31229,1.33346 0,0.5609 -0.28574,1.0583 -0.79372,1.52395 z m -0.51857,3.52414 c -0.9313,0 -1.62978,-0.60323 -1.62978,-1.4287 0,-0.70906 0.45507,-1.25938 1.06888,-1.65095 1.09005,0.44449 2.0531,0.77256 2.0531,1.76736 0,0.77256 -0.59264,1.31229 -1.4922,1.31229 z m 5.68307,0.71965 c 1.38638,0 2.49759,-0.80431 2.49759,-2.14835 0,-1.03714 -0.73023,-1.70386 -1.64036,-1.92611 v -0.0423 c 0.81489,-0.29632 1.37579,-0.87839 1.37579,-1.79911 0,-1.20646 -0.95247,-1.90494 -2.26477,-1.90494 -0.88897,0 -1.57686,0.40215 -2.15893,0.94189 l 0.51857,0.61381 c 0.44448,-0.45507 0.98422,-0.77256 1.60861,-0.77256 0.8149,0 1.3123,0.46565 1.3123,1.19588 0,0.79373 -0.53974,1.40754 -2.14835,1.40754 v 0.75139 c 1.79911,0 2.41292,0.59265 2.41292,1.49221 0,0.85722 -0.64556,1.38637 -1.57687,1.38637 -0.87838,0 -1.46045,-0.42332 -1.91552,-0.88897 l -0.4974,0.62439 c 0.50798,0.5609 1.26996,1.06889 2.47642,1.06889 z m 6.43448,-0.13758 h 0.97364 v -4.1697 c 0.51856,-0.59265 1.00538,-0.87839 1.43928,-0.87839 0.73023,0 1.06889,0.45507 1.06889,1.53453 v 3.51356 h 0.96305 v -4.1697 c 0.53973,-0.59265 1.00539,-0.87839 1.44987,-0.87839 0.73023,0 1.06888,0.45507 1.06888,1.53453 v 3.51356 h 0.96306 v -3.64055 c 0,-1.46046 -0.5609,-2.25418 -1.73561,-2.25418 -0.70907,0 -1.30171,0.45507 -1.90494,1.10063 -0.23283,-0.67731 -0.69848,-1.10063 -1.58745,-1.10063 -0.6879,0 -1.28055,0.4339 -1.78853,0.98422 h -0.0212 l -0.0952,-0.83606 h -0.79373 z m 9.79987,0 h 0.97363 v -4.1697 c 0.51857,-0.59265 1.00539,-0.87839 1.43929,-0.87839 0.73023,0 1.06888,0.45507 1.06888,1.53453 v 3.51356 h 0.96306 v -4.1697 c 0.53973,-0.59265 1.00538,-0.87839 1.44987,-0.87839 0.73022,0 1.06888,0.45507 1.06888,1.53453 v 3.51356 h 0.96305 v -3.64055 c 0,-1.46046 -0.5609,-2.25418 -1.73561,-2.25418 -0.70906,0 -1.30171,0.45507 -1.90494,1.10063 -0.23282,-0.67731 -0.69848,-1.10063 -1.58745,-1.10063 -0.68789,0 -1.28054,0.4339 -1.78853,0.98422 h -0.0212 l -0.0952,-0.83606 h -0.79372 z m 9.61995,2.01077 c 0.95247,-0.40216 1.54512,-1.19588 1.54512,-2.21185 0,-0.70906 -0.30691,-1.13238 -0.81489,-1.13238 -0.39157,0 -0.73023,0.25399 -0.73023,0.67731 0,0.42332 0.32807,0.67731 0.70906,0.67731 l 0.11641,-0.0106 c -0.0106,0.63498 -0.40215,1.14297 -1.0583,1.42871 z m 8.41349,-7.30227 h 4.26495 v 0.69848 h -4.26495 z m 0,-1.20646 h 4.26495 v 0.68789 h -4.26495 z m -0.76198,-0.53974 v 2.99499 h 5.79949 v -2.99499 z m 2.60342,4.80469 v 0.52915 h -3.49239 v 0.63498 h 3.49239 v 1.01596 c 0,0.13758 -0.0423,0.17991 -0.22224,0.1905 -0.16933,0.0106 -0.80431,0.0106 -1.48162,-0.0106 0.10583,0.1905 0.22224,0.44449 0.27515,0.65615 0.86781,0 1.41813,0 1.75678,-0.10583 0.33866,-0.10583 0.44449,-0.29632 0.44449,-0.70906 v -1.03713 h 3.6088 v -0.63498 h -3.6088 v -0.21166 c 0.91014,-0.27516 1.87319,-0.6879 2.57167,-1.14297 l -0.48682,-0.42332 -0.16933,0.0423 h -5.32325 v 0.58207 h 4.33903 c -0.51856,0.24341 -1.14296,0.47623 -1.70386,0.6244 z m -4.33903,-6.1064 v 3.12199 c 0,1.66153 -0.0953,3.98979 -1.03713,5.64074 0.20107,0.0741 0.53973,0.27516 0.68789,0.40215 0.98422,-1.72503 1.13238,-4.28611 1.13238,-6.04289 v -2.38118 h 7.79967 v -0.74081 z m 13.27109,1.52396 v 0.92072 h -1.70386 v 0.65614 h 1.70386 v 1.75678 h 4.11679 v -1.75678 h 1.71444 v -0.65614 h -1.71444 v -0.92072 h -0.78315 v 0.92072 h -2.57166 v -0.92072 z m 3.33364,1.57686 v 1.1218 h -2.57166 v -1.1218 z m 0.59265,3.09024 c -0.46565,0.55032 -1.1218,0.98422 -1.88377,1.32287 -0.75139,-0.34923 -1.36521,-0.79372 -1.80969,-1.32287 z m -5.48199,-0.65615 v 0.65615 h 1.37579 l -0.35982,0.14816 c 0.4339,0.59265 1.01596,1.09005 1.71444,1.50279 -0.9948,0.31749 -2.10601,0.50798 -3.22781,0.60323 0.11641,0.17991 0.26457,0.48682 0.31749,0.67731 1.32287,-0.14816 2.614,-0.41274 3.74638,-0.85722 1.04772,0.46565 2.28593,0.76197 3.61939,0.92072 0.0952,-0.20108 0.29632,-0.51857 0.46565,-0.6879 -1.16413,-0.10583 -2.25418,-0.31749 -3.19607,-0.64556 0.93131,-0.4974 1.70386,-1.17471 2.19068,-2.08485 l -0.4974,-0.26458 -0.13758,0.0317 z m 2.47642,-5.94764 c 0.14816,0.27516 0.30691,0.61381 0.42332,0.91014 h -4.09562 v 2.88915 c 0,1.57687 -0.0741,3.84163 -0.94189,5.43967 0.20108,0.0635 0.55032,0.23282 0.70906,0.35982 0.88898,-1.67212 1.02655,-4.11679 1.02655,-5.81007 v -2.12718 h 7.90551 v -0.75139 h -3.70405 c -0.127,-0.33866 -0.33866,-0.76198 -0.52915,-1.10064 z m 8.87914,8.75214 h 4.25437 v -0.80431 h -1.5557 v -6.95303 h -0.74081 c -0.42332,0.24341 -0.92072,0.42332 -1.60862,0.55032 v 0.61381 h 1.38638 v 5.7889 h -1.73562 z m 6.4133,0.13758 c 0.38099,0 0.69848,-0.29633 0.69848,-0.73023 0,-0.44449 -0.31749,-0.74081 -0.69848,-0.74081 -0.39157,0 -0.69848,0.29632 -0.69848,0.74081 0,0.4339 0.30691,0.73023 0.69848,0.73023 z m 4.24379,0 c 1.30171,0 2.53992,-0.96306 2.53992,-2.65634 0,-1.71444 -1.0583,-2.47642 -2.33884,-2.47642 -0.46566,0 -0.8149,0.11642 -1.16413,0.30691 l 0.20107,-2.2436 h 2.92091 v -0.82547 h -3.76755 l -0.25399,3.61939 0.51857,0.32807 c 0.44448,-0.29633 0.77256,-0.45507 1.29112,-0.45507 0.97364,0 1.60862,0.65615 1.60862,1.76736 0,1.13238 -0.73023,1.83086 -1.65095,1.83086 -0.89955,0 -1.47104,-0.41274 -1.90494,-0.85722 l -0.48682,0.63498 c 0.52915,0.51856 1.26996,1.02655 2.48701,1.02655 z m 4.07445,-0.13758 h 0.97364 v -4.1697 c 0.51857,-0.59265 1.00539,-0.87839 1.43929,-0.87839 0.73023,0 1.06888,0.45507 1.06888,1.53453 v 3.51356 h 0.96305 v -4.1697 c 0.53974,-0.59265 1.00539,-0.87839 1.44988,-0.87839 0.73022,0 1.06888,0.45507 1.06888,1.53453 v 3.51356 h 0.96305 v -3.64055 c 0,-1.46046 -0.5609,-2.25418 -1.73561,-2.25418 -0.70906,0 -1.30171,0.45507 -1.90494,1.10063 -0.23283,-0.67731 -0.69848,-1.10063 -1.58745,-1.10063 -0.6879,0 -1.28054,0.4339 -1.78853,0.98422 h -0.0212 l -0.0952,-0.83606 h -0.79373 z m 9.79987,0 h 0.97364 v -4.1697 c 0.51856,-0.59265 1.00538,-0.87839 1.43928,-0.87839 0.73023,0 1.06889,0.45507 1.06889,1.53453 v 3.51356 h 0.96305 v -4.1697 c 0.53973,-0.59265 1.00539,-0.87839 1.44987,-0.87839 0.73023,0 1.06888,0.45507 1.06888,1.53453 v 3.51356 h 0.96306 v -3.64055 c 0,-1.46046 -0.5609,-2.25418 -1.73561,-2.25418 -0.70907,0 -1.30171,0.45507 -1.90494,1.10063 -0.23283,-0.67731 -0.69848,-1.10063 -1.58745,-1.10063 -0.6879,0 -1.28055,0.4339 -1.78853,0.98422 h -0.0212 l -0.0952,-0.83606 h -0.79373 z"
     id="text149"
     aria-label="尺寸 462.44 mm x 133.83 mm, 厚度 1.5mm" /><path
     style="font-size:10.583px;line-height:1.05;font-family:'思源黑体';-inkscape-font-specification:'思源黑体';text-align:center;text-anchor:middle;stroke-width:0.26458"
     d="m 20.295537,174.56932 c -0.624397,1.58745 -1.69328,3.1114 -2.889159,4.05329 0.21166,0.12699 0.571482,0.41273 0.730227,0.57148 1.174713,-1.04772 2.296511,-2.65633 3.005572,-4.39195 z m 3.608803,-0.0847 -0.772559,0.31749 c 0.804308,1.59804 2.158932,3.37598 3.270147,4.39195 0.158745,-0.21166 0.455069,-0.51857 0.666729,-0.67731 -1.100632,-0.87839 -2.455256,-2.57167 -3.164317,-4.03213 z m -5.333832,8.81564 c 0.402154,-0.14816 0.973636,-0.19049 6.56146,-0.5609 0.285741,0.43391 0.52915,0.84664 0.709061,1.1853 l 0.783142,-0.42332 c -0.52915,-0.96305 -1.619199,-2.45526 -2.550503,-3.58764 l -0.74081,0.33866 c 0.42332,0.52915 0.878389,1.14296 1.301709,1.74619 l -4.952844,0.28574 c 1.0583,-1.22762 2.095434,-2.81507 2.973823,-4.42369 l -0.867806,-0.3704 c -0.84664,1.75677 -2.137766,3.6088 -2.561086,4.08503 -0.391571,0.4974 -0.677312,0.81489 -0.963053,0.88898 0.116413,0.23282 0.264575,0.65614 0.306907,0.83605 z m 16.213156,-9.05905 c -0.190494,0.41274 -0.52915,1.00539 -0.804308,1.41813 h -2.43409 c -0.169328,-0.40216 -0.52915,-0.96306 -0.888972,-1.37579 l -0.687895,0.28574 c 0.253992,0.32807 0.518567,0.73022 0.698478,1.09005 H 28.56086 v 0.73022 h 3.545305 c -0.0635,0.31749 -0.137579,0.61382 -0.222243,0.91014 h -2.815078 v 0.70906 h 2.603418 c -0.116413,0.32808 -0.232826,0.64557 -0.370405,0.94189 h -3.217232 v 0.74081 h 2.846827 c -0.719644,1.26996 -1.703863,2.25418 -3.06907,2.94207 0.169328,0.15875 0.465652,0.50799 0.582065,0.67732 1.132381,-0.64557 2.031936,-1.47104 2.740997,-2.49759 v 0.47623 h 2.137766 v 1.51337 h -3.534722 v 0.74081 h 7.577428 v -0.74081 h -3.217232 v -1.51337 h 2.444673 v -0.74081 h -5.238585 c 0.179911,-0.27516 0.338656,-0.5609 0.486818,-0.85722 h 5.556075 v -0.74081 h -5.217419 c 0.116413,-0.29632 0.232826,-0.61381 0.338656,-0.94189 h 3.958042 v -0.70906 h -3.746382 c 0.08466,-0.29632 0.148162,-0.59265 0.222243,-0.91014 h 4.042706 v -0.73022 h -2.137766 c 0.264575,-0.34924 0.539733,-0.76198 0.793725,-1.15355 z m 8.561657,9.04847 c 1.471037,0 2.412924,-1.33346 2.412924,-4.04271 0,-2.68808 -0.941887,-3.98979 -2.412924,-3.98979 -1.48162,0 -2.412924,1.30171 -2.412924,3.98979 0,2.70925 0.931304,4.04271 2.412924,4.04271 z m 0,-0.78314 c -0.878389,0 -1.48162,-0.98422 -1.48162,-3.25957 0,-2.26476 0.603231,-3.22781 1.48162,-3.22781 0.878389,0 1.48162,0.96305 1.48162,3.22781 0,2.27535 -0.603231,3.25957 -1.48162,3.25957 z m 4.402532,0.78314 c 0.380988,0 0.698478,-0.29632 0.698478,-0.73023 0,-0.44448 -0.31749,-0.74081 -0.698478,-0.74081 -0.391571,0 -0.698478,0.29633 -0.698478,0.74081 0,0.43391 0.306907,0.73023 0.698478,0.73023 z m 2.402341,-0.13758 h 4.254366 v -0.80431 h -1.555701 v -6.95303 h -0.74081 c -0.42332,0.24341 -0.920721,0.42332 -1.608616,0.55032 v 0.61381 h 1.386373 v 5.7889 h -1.735612 z m 5.915898,0 h 0.973636 v -4.1697 c 0.518567,-0.59265 1.005385,-0.87839 1.439288,-0.87839 0.730227,0 1.068883,0.45507 1.068883,1.53453 v 3.51356 h 0.963053 v -4.1697 c 0.539733,-0.59265 1.005385,-0.87839 1.449871,-0.87839 0.730227,0 1.068883,0.45507 1.068883,1.53453 v 3.51356 h 0.963053 v -3.64055 c 0,-1.46046 -0.560899,-2.25418 -1.735612,-2.25418 -0.709061,0 -1.301709,0.45507 -1.90494,1.10063 -0.232826,-0.67731 -0.698478,-1.10063 -1.58745,-1.10063 -0.687895,0 -1.280543,0.4339 -1.788527,0.98422 h -0.02117 l -0.09525,-0.83606 h -0.793725 z m 9.799866,0 h 0.973636 v -4.1697 c 0.518567,-0.59265 1.005385,-0.87839 1.439288,-0.87839 0.730227,0 1.068883,0.45507 1.068883,1.53453 v 3.51356 h 0.963053 v -4.1697 c 0.539733,-0.59265 1.005385,-0.87839 1.449871,-0.87839 0.730227,0 1.068883,0.45507 1.068883,1.53453 v 3.51356 h 0.963053 v -3.64055 c 0,-1.46046 -0.560899,-2.25418 -1.735612,-2.25418 -0.709061,0 -1.301709,0.45507 -1.90494,1.10063 -0.232826,-0.67731 -0.698478,-1.10063 -1.58745,-1.10063 -0.687895,0 -1.280543,0.4339 -1.788527,0.98422 h -0.02117 l -0.09525,-0.83606 h -0.793725 z"
     id="text157"
     aria-label="公差 0.1mm" /></svg>
